<?xml version="1.0" encoding="UTF-8"?>
<svg id="Layer_1" data-name="Layer 1" xmlns="http://www.w3.org/2000/svg" viewBox="0 0 200 200">
  <defs>
    <style>
      .cls-1 {
        stroke: #39b54a;
      }

      .cls-1, .cls-2 {
        fill: none;
        stroke-miterlimit: 10;
        stroke-width: 30px;
      }

      .cls-2 {
        stroke: #006837;
      }
    </style>
  </defs>
  <path class="cls-1" d="M161.58,132.92c-9.82,11.85-24.66,19.4-41.25,19.4-29.58,0-53.55-23.98-53.55-53.55s23.98-53.55,53.55-53.55c16.6,0,31.43,7.55,41.25,19.4"/>
  <path class="cls-2" d="M135.34,65.85c-10.42-12.57-26.47-20.3-44.29-19.32-27.36,1.51-49.38,23.9-50.48,51.27-1.22,30.58,23.2,55.75,53.51,55.75,16.36,0,31.01-7.34,40.84-18.91,.27-.32,.42-.73,.42-1.14v-24.38c0-2.82-2.28-5.1-5.1-5.1h-22.09"/>
</svg>
